<svg version="1.1" id="Layer_1" xmlns="http://www.w3.org/2000/svg" xmlns:xlink="http://www.w3.org/1999/xlink" x="0px" y="0px"
	 width="100%" viewBox="0 0 304 304" enable-background="new 0 0 304 304" xml:space="preserve">
<path fill="#000000" opacity="1.000000" stroke="none" 
	d="
M161.400269,178.849640 
	C162.547318,197.095108 162.528000,214.879532 161.604218,232.709274 
	C160.955597,245.228104 159.742661,257.571289 156.289291,269.635651 
	C154.767899,274.950684 152.512726,279.943970 149.334274,284.496216 
	C139.069702,299.197235 118.599098,297.876221 110.427795,281.877563 
	C105.732491,272.684601 104.916542,262.790894 106.071106,252.684143 
	C109.725731,220.692444 125.929070,194.858032 146.370743,171.183044 
	C148.731567,168.448776 149.773376,165.812500 149.719315,162.241943 
	C149.361023,138.586105 150.497635,114.965279 151.721283,91.350922 
	C151.892868,88.039787 152.385040,84.744812 152.743332,81.443939 
	C153.203079,77.208328 155.934799,74.479691 159.356766,74.818680 
	C163.023041,75.181870 165.300751,78.531609 164.794861,82.934296 
	C162.341309,104.287346 162.311172,125.769302 161.362274,147.202164 
	C161.282974,148.993210 161.351776,150.790817 161.351776,152.336151 
	C162.876877,153.179443 163.366470,152.282303 163.865463,151.728287 
	C176.686874,137.493011 189.824753,123.487755 198.635437,106.201546 
	C200.527893,102.488647 203.473297,101.471352 206.893906,103.132515 
	C210.462677,104.865623 210.933319,108.033936 209.304321,111.636864 
	C204.862915,121.459976 198.255341,129.828445 191.639267,138.193771 
	C183.261368,148.786728 173.979950,158.591858 164.855179,168.522812 
	C162.139969,171.477905 160.832794,174.508575 161.400269,178.849640 
M135.152313,206.600952 
	C127.584427,219.416794 121.587769,232.833618 118.789864,247.582199 
	C117.154541,256.202423 116.782616,264.728333 119.472397,273.152649 
	C120.948097,277.774475 123.560219,281.726837 128.799286,282.541473 
	C134.077438,283.362213 137.562790,280.352600 140.349503,276.251770 
	C142.914169,272.477631 144.517960,268.280121 145.570755,263.912689 
	C150.202194,244.699509 150.736649,225.121857 150.416794,205.495560 
	C150.318649,199.472534 149.790329,193.456497 149.409500,186.537964 
	C143.711105,193.116104 139.456711,199.431580 135.152313,206.600952 
z"/>
<path fill="#000000" opacity="1.000000" stroke="none" 
	d="
M165.002991,23.744522 
	C170.977585,25.551886 174.479294,29.216679 175.249176,35.080685 
	C175.917740,40.173119 174.510010,44.651928 170.292130,47.892174 
	C165.690460,51.427238 158.008835,51.437531 153.532410,48.024940 
	C148.919205,44.508083 147.050629,37.489353 149.215988,31.811571 
	C151.441345,25.976402 157.255417,22.906025 165.002991,23.744522 
M165.169601,34.652153 
	C163.750748,33.086906 162.194336,31.876095 160.025558,33.263321 
	C158.237015,34.407330 156.934433,36.057037 157.707413,38.221985 
	C158.390411,40.134914 159.937271,41.877304 162.183105,41.350758 
	C165.242188,40.633533 166.390625,38.395424 165.169601,34.652153 
z"/>
</svg>